C:\Users\u0150099\Documents\PredSim_dev\Subjects\test_1\MuscleAnalysis\dummy_motion.mot
version=1
nRows=13
nColumns=32
inDegrees=no
endheader
                time	         pelvis_tilt	         pelvis_list	     pelvis_rotation	           pelvis_tx	           pelvis_ty	           pelvis_tz	       hip_flexion_l	     hip_adduction_l	      hip_rotation_l	       hip_flexion_r	     hip_adduction_r	      hip_rotation_r	        knee_angle_l	        knee_angle_r	       ankle_angle_l	       ankle_angle_r	    subtalar_angle_l	    subtalar_angle_r	         mtp_angle_l	         mtp_angle_r	    lumbar_extension	      lumbar_bending	     lumbar_rotation	          arm_flex_l	           arm_add_l	           arm_rot_l	          arm_flex_r	           arm_add_r	           arm_rot_r	        elbow_flex_l	        elbow_flex_r	
         12.51000000	          0.00000000	          0.00000000	          0.00000000	          0.00000000	          0.00000000	          0.00000000	          0.65568941	         -0.51918052	         -0.31575354	         -0.52160566	          0.40499084	          0.14994033	         -0.42807442	         -0.55539389	         -0.10029053	          0.19488385	         -0.27327551	          0.18057977	          0.07387383	          0.29567630	          0.03799801	          0.03639793	          0.13360233	          0.16293566	          0.29725937	          0.07760077	          0.02959093	          0.25257991	         -0.24924087	          0.30156476	          0.37192424	
         12.52000000	          0.00000000	          0.00000000	          0.00000000	          0.00000000	          0.00000000	          0.00000000	         -0.06531574	          0.15273627	          0.01648956	         -0.28523091	         -0.30230873	         -0.22796104	         -0.27390463	         -1.54881347	          0.28325525	          0.51084990	          0.46798116	          0.43185735	          0.43155685	          0.63685043	         -0.02847836	         -0.51897306	          0.51666742	          0.25623774	         -0.26551318	          0.02164210	          0.14369188	          0.04453045	          0.14067479	          0.24882576	         -0.47939699	
         12.53000000	          0.00000000	          0.00000000	          0.00000000	          0.00000000	          0.00000000	          0.00000000	         -0.41418616	         -0.45547388	         -0.34832756	          0.72600970	          0.52001787	         -0.08594929	         -0.01912158	         -0.54915415	         -0.12870459	          0.45147034	          0.18130781	         -0.46533559	          0.75348405	          0.83816610	         -0.20659792	          0.52293368	         -0.09332600	          0.35497669	          0.36990221	         -0.26468824	         -0.38995149	         -0.48953530	          0.31424949	          0.09007973	         -0.29354940	
         12.54000000	          0.00000000	          0.00000000	          0.00000000	          0.00000000	          0.00000000	          0.00000000	         -0.75005473	          0.05186436	         -0.25635040	         -0.24692233	         -0.25373438	          0.11641533	         -0.70493436	         -0.37306520	          0.44705722	          0.09409690	          0.30346159	          0.21138447	          0.53892643	          0.58229418	         -0.46409073	          0.23803483	          0.32769132	          0.08106498	         -0.38819355	          0.11199027	          0.08640361	          0.35246665	          0.48852823	          0.06966912	         -0.46309830	
         12.55000000	          0.00000000	          0.00000000	          0.00000000	          0.00000000	          0.00000000	          0.00000000	         -0.60855673	         -0.21191078	         -0.11550207	          0.22091895	          0.22944421	         -0.50917057	         -0.54921763	         -1.25831313	         -0.45924123	          0.03072140	         -0.02437543	          0.47586661	          0.73381584	          0.12184645	         -0.49522315	         -0.43108815	         -0.49117525	         -0.41750570	          0.50694421	         -0.36722240	         -0.45810797	         -0.03045290	         -0.27856893	         -0.10806280	         -0.15011220	
         12.56000000	          0.00000000	          0.00000000	          0.00000000	          0.00000000	          0.00000000	          0.00000000	         -0.28856608	          0.31792782	         -0.12228422	          0.25292263	          0.50656958	          0.29944564	         -0.85859021	         -0.41586252	         -0.07244585	          0.17199278	          0.35208313	         -0.29756646	          0.76101279	          0.42861233	         -0.39844558	          0.48195381	          0.07660447	          0.48125539	         -0.40473145	         -0.13210436	          0.06570680	          0.21213160	         -0.48563830	          0.30095041	          0.44034213	
         12.57000000	          0.00000000	          0.00000000	          0.00000000	          0.00000000	          0.00000000	          0.00000000	          0.82034928	         -0.04918198	          0.44567950	         -0.15368997	          0.31874637	          0.09889777	         -0.06281610	         -0.35461471	         -0.07938073	          0.41701434	          0.49111567	         -0.01349516	         -0.28100574	         -0.11071309	          0.22261870	          0.51576421	          0.01197133	         -0.50812300	          0.30172211	         -0.28055154	          0.24202811	         -0.35963099	          0.49033428	          0.18059277	          0.14333143	
         12.58000000	          0.00000000	          0.00000000	          0.00000000	          0.00000000	          0.00000000	          0.00000000	          0.65842666	         -0.14905187	         -0.08513131	          0.40403836	          0.48413268	         -0.29974966	         -0.94891979	         -0.25776092	         -0.36402070	          0.32245686	         -0.06635219	         -0.38831824	          0.70333487	          0.23623406	         -0.19898375	          0.36158645	          0.38035843	          0.29711254	          0.33912080	          0.01875960	         -0.33195562	         -0.08206239	         -0.52274011	         -0.15019009	          0.13030886	
         12.59000000	          0.00000000	          0.00000000	          0.00000000	          0.00000000	          0.00000000	          0.00000000	         -0.68286289	         -0.38596373	          0.17663908	          0.39612016	         -0.49324113	          0.34087091	         -1.11028038	         -1.23508977	         -0.47995845	         -0.17303605	          0.31076585	         -0.01363644	          0.62208457	          0.04952142	          0.38380447	          0.33589014	         -0.43459467	          0.49106413	          0.10817952	          0.10948971	         -0.39075945	         -0.16235551	          0.28259629	          0.24880522	         -0.30979146	
         12.60000000	          0.00000000	          0.00000000	          0.00000000	          0.00000000	          0.00000000	          0.00000000	         -0.26234824	         -0.39527780	         -0.45278865	          0.20778382	         -0.16459183	         -0.06953006	         -0.73467124	         -0.96744079	          0.47758131	          0.23297220	         -0.02617610	         -0.41755519	          0.33462524	          0.71691562	         -0.03268905	          0.38441435	          0.13553182	          0.02480769	          0.39627785	          0.24612188	         -0.04963140	         -0.37360054	          0.37747288	         -0.25083306	         -0.20592840	
         12.61000000	          0.00000000	          0.00000000	          0.00000000	          0.00000000	          0.00000000	          0.00000000	         -0.77765885	          0.16519113	          0.34714223	          0.45399566	         -0.30974724	         -0.25363921	         -1.00756982	         -0.05321441	         -0.38000265	         -0.06137951	          0.17297956	         -0.24412835	          0.25619818	         -0.05582280	         -0.40304893	          0.37385054	          0.20761567	         -0.24816537	         -0.51875670	          0.38019909	         -0.36997367	         -0.08803063	         -0.03998132	         -0.30873270	         -0.01321952	
         12.62000000	          0.00000000	          0.00000000	          0.00000000	          0.00000000	          0.00000000	          0.00000000	         -0.08407402	         -0.27558538	         -0.44409552	          0.75743816	         -0.13043951	          0.32357812	         -0.50862785	         -0.32457682	          0.28150609	         -0.45996681	          0.48302950	          0.37133311	          0.80012651	          0.22644501	          0.38858811	          0.07951811	         -0.12752430	         -0.46023013	          0.35976130	          0.48608198	         -0.49250846	         -0.49426241	          0.13911858	          0.39460444	         -0.23423921	
         12.63000000	          0.00000000	          0.00000000	          0.00000000	          0.00000000	          0.00000000	          0.00000000	         -0.56282202	         -0.06937583	          0.30689262	         -0.43200466	         -0.05857348	         -0.01692509	         -0.16009881	         -1.50668113	         -0.28654871	          0.27522323	         -0.16088780	         -0.04092082	          0.81715367	         -0.05081445	         -0.24609338	          0.21708681	         -0.52034997	          0.48505695	          0.49190636	          0.02408916	          0.11667486	          0.34549363	          0.28754840	          0.34083477	         -0.45222203	
